<svg xmlns="http://www.w3.org/2000/svg" viewBox="0 0 760 700" role="img" aria-labelledby="gm-map-title gm-map-desc">
  <title id="gm-map-title">Greater Manchester Boroughs</title>
  <desc id="gm-map-desc">Interactive map of the ten Greater Manchester boroughs for the Pride listings.</desc>
  <!-- Derived from Office for National Statistics Local Authority Districts December 2024 Boundaries UK BFC via the ONS ArcGIS Open Geography service. -->
  <!-- Contains OS data © Crown copyright and database right 2025. Licensed under the Open Government Licence v3.0. -->

  <!-- Wigan -->
  <path id="borough-wigan" data-borough="wigan" d="M 109.13 203.21 L 112.33 204.68 L 112.95 215.26 L 117.64 224.25 L 115.63 227.31 L 116.18 230.31 L 124.41 227.97 L 134.58 231.99 L 143.17 231.26 L 159.02 242.45 L 157.96 247.06 L 161.16 248.63 L 162.78 252.32 L 169.21 258.28 L 166.85 266.02 L 174.49 271.04 L 171.29 273.48 L 174.31 279.08 L 173.32 282.44 L 168.21 286.07 L 165.93 290.33 L 175.01 293.06 L 175.77 295.27 L 172.6 303.24 L 187.02 311.26 L 189.18 315.28 L 194.57 319.61 L 196.68 326.15 L 200.78 326.05 L 201.85 322.46 L 211.69 317.64 L 212.31 307.68 L 214.47 306.98 L 216.91 310.15 L 220.62 303.11 L 234.47 309.46 L 267.38 317.98 L 264.93 321.76 L 291.86 329.98 L 298.93 337.86 L 298.24 341.96 L 294.71 341.8 L 295.35 344.39 L 292.28 346.18 L 293.07 347.34 L 292.31 348.44 L 293.81 349.54 L 285.3 352.42 L 285.5 356.69 L 283 357.93 L 284.28 362.17 L 278.37 370.29 L 280.81 376.15 L 278.34 385.17 L 281.84 409.74 L 255.53 413.76 L 245.56 413.49 L 234.45 416.6 L 232.26 409.58 L 233.01 399.49 L 234.94 394.16 L 228.77 386.83 L 180.48 405.74 L 183.53 414.83 L 165.32 419.12 L 161.75 434.18 L 159.97 437.17 L 154.16 432.91 L 153.01 428.19 L 154.37 426.59 L 153.41 425.49 L 149.59 422.56 L 142.49 421.57 L 140.51 418.56 L 140.52 415.47 L 132.05 415.55 L 126.69 411.82 L 125.44 407.74 L 127.43 404.62 L 127.38 402.07 L 133.12 401.4 L 129.68 395.38 L 129.52 392.87 L 132.02 393.83 L 128.55 390.81 L 129.41 386.49 L 100.8 387.78 L 93.43 378.75 L 91.2 370.11 L 85.68 369.62 L 87.27 368.46 L 85.02 366.97 L 83.03 359.71 L 73.15 361.01 L 68.27 358.01 L 54.98 356.43 L 53.44 352.71 L 51.31 353.61 L 48.26 350.4 L 46.77 340.12 L 45.5 338.31 L 40.73 343.95 L 37.56 342.33 L 33.84 344.45 L 30.67 333.65 L 28 329.65 L 38.79 319.95 L 40.02 304.98 L 41.63 304.07 L 38.18 296.53 L 44.71 287.79 L 45.29 282.81 L 49.96 273.98 L 50.4 268.76 L 44.42 265.94 L 43.46 260.81 L 38.94 254.71 L 40.7 251.07 L 37.63 249.76 L 41.39 246.35 L 41.79 241.49 L 47.58 234.37 L 51.72 233.53 L 52.6 230.41 L 51.68 229.8 L 54.03 227.81 L 59.79 230.38 L 60.77 218.39 L 63.13 208.97 L 65.71 210.57 L 79.68 207.82 L 87.54 210.37 L 99.63 204.61 L 109.09 203.2 Z" />

  <!-- Bolton -->
  <path id="borough-bolton" data-borough="bolton" d="M 278.22 148.7 L 288.98 164.65 L 288.8 176.9 L 292.79 180.77 L 303.6 178.46 L 310.35 179.68 L 310.72 173.23 L 313.25 168.69 L 323.45 167.53 L 325.27 170.02 L 329.3 170.62 L 329.37 176.15 L 327.54 175.72 L 325.59 178.3 L 331.68 183.3 L 329.04 185.87 L 330.57 185.55 L 333.53 191.8 L 338.36 192.72 L 343.14 200.28 L 341.81 202.09 L 342.59 203.91 L 341.75 210.8 L 337.6 218.86 L 338.3 221.29 L 331.08 225.35 L 333.18 228.87 L 331.56 231.24 L 332.58 235.45 L 331.44 241.05 L 333.28 243.7 L 333 246.95 L 334.98 252.89 L 333.71 257.19 L 344.86 260.88 L 349.11 271.85 L 348.04 275.9 L 349.21 277.58 L 346.58 283 L 344.87 282.38 L 343.83 278.42 L 339.95 282.41 L 334.05 281.59 L 356.39 291.05 L 359.56 294.06 L 361.59 293.17 L 361.7 299.72 L 365.17 305.22 L 364.41 310.86 L 357.78 305.33 L 355.48 305.63 L 355.46 307.9 L 351.12 308.78 L 352.46 309.98 L 350.29 312.11 L 351.92 312.72 L 351.25 315.76 L 353.62 316.56 L 350.52 321.49 L 323.94 313.87 L 312.72 304.08 L 302.71 304.07 L 293.01 300.22 L 279.54 298.4 L 278.72 301.6 L 276.25 303.53 L 275.4 310.74 L 270.12 318.8 L 234.47 309.46 L 220.62 303.11 L 216.91 310.15 L 214.47 306.98 L 212.31 307.68 L 211.69 317.64 L 201.85 322.46 L 200.78 326.05 L 196.68 326.15 L 194.57 319.61 L 189.18 315.28 L 187.02 311.26 L 172.6 303.24 L 175.77 295.27 L 175.01 293.06 L 165.93 290.33 L 168.21 286.07 L 173.32 282.44 L 174.31 279.08 L 171.29 273.48 L 174.49 271.04 L 166.85 266.02 L 169.21 258.28 L 162.78 252.32 L 161.16 248.63 L 157.96 247.06 L 158.72 242.07 L 143.17 231.26 L 134.58 231.99 L 124.41 227.97 L 118 230.44 L 115.52 229.41 L 117.29 224.45 L 122.77 223.42 L 124.95 221.12 L 126.88 211.01 L 137.42 202.55 L 141.93 202.09 L 143.37 199.57 L 150.62 203.68 L 151.24 206.42 L 154.38 208.37 L 157.05 213.52 L 156.25 215.1 L 162.16 223.37 L 166.28 221.53 L 174.71 216.52 L 177.68 208.91 L 180.54 207.83 L 181.29 203.74 L 192.16 199.52 L 196.08 194.16 L 215.92 176.21 L 245.98 191.04 L 248.76 191.26 L 250.94 186.44 L 256.96 182.95 L 260.2 186.24 L 264.21 184.34 L 265.46 181.3 L 261.41 179.62 L 263.18 176.48 L 267.94 175.1 L 269.89 169.19 L 268.79 167.01 L 270.26 162.2 L 268.28 155.39 L 274.45 153.98 L 278.19 148.74 Z" />

  <!-- Bury -->
  <path id="borough-bury" data-borough="bury" d="M 366.43 134.92 L 383.81 135.75 L 385.55 130.58 L 398.02 118.95 L 400.78 122.29 L 402.5 131.6 L 402.43 134.2 L 400.24 135.86 L 400.97 138.65 L 399.14 140.49 L 400.8 155.38 L 411.31 176.21 L 410.47 178.55 L 412.22 181.82 L 411.89 185.94 L 413.7 184.96 L 415.83 185.84 L 416.3 188.18 L 420.71 188.44 L 421.49 194.55 L 427.1 203.56 L 432.19 206.42 L 439.2 204.74 L 440.82 211.15 L 444.4 213.92 L 443.86 216.39 L 439.65 216.39 L 435.3 219.28 L 432.97 222.31 L 432.15 226.41 L 422.92 226.73 L 422.79 230.77 L 417.07 227.47 L 415.4 231.13 L 415.95 235.75 L 412.5 233.94 L 412.23 238.03 L 416.35 243.81 L 419.82 244.98 L 424.2 242.83 L 424.95 237.56 L 426.98 235.79 L 432.13 236.38 L 436.03 240.25 L 439.78 248.88 L 445.8 255.94 L 443.89 260.41 L 445.81 261.57 L 442.03 269.15 L 447.89 270.56 L 451.6 273.91 L 447.16 276.92 L 450.85 281.95 L 453.47 299.16 L 450.56 303.48 L 441.75 295.66 L 431.94 297.53 L 424.07 306.31 L 426.57 320.83 L 427.95 323.73 L 442.93 317.17 L 441.08 323.56 L 438.52 322.19 L 438.81 324.7 L 437.07 324.36 L 437.6 326.9 L 434.49 330.12 L 434.08 333.45 L 421.55 334.1 L 405.06 342 L 402.01 337.11 L 395.23 334.69 L 394.71 327.79 L 388.19 320.13 L 376.32 320.09 L 366.61 313.78 L 364.41 310.86 L 365.17 305.22 L 361.58 299.25 L 361.59 293.17 L 359.56 294.06 L 356.39 291.05 L 334.05 281.59 L 339.95 282.41 L 343.83 278.42 L 346.25 283.16 L 349.21 277.58 L 348.04 275.9 L 348.96 270.84 L 344.86 260.88 L 333.8 257.62 L 334.98 252.89 L 333 246.95 L 333.28 243.7 L 331.44 241.19 L 332.58 235.45 L 331.56 231.24 L 333.18 228.87 L 331.21 224.82 L 338.3 221.29 L 337.6 218.86 L 341.75 210.8 L 342.59 203.91 L 341.81 202.09 L 343.14 200.28 L 338.36 192.72 L 331.72 189.91 L 332.91 189.13 L 328.83 185.12 L 331.68 183.3 L 325.59 178.3 L 327.54 175.72 L 329.37 176.15 L 329.3 170.65 L 336.32 169.9 L 338.37 164.47 L 338.37 160.38 L 337.08 160.32 L 335.04 154.08 L 336.69 150.75 L 339.7 150.23 L 340.46 142.12 L 343.44 134.5 L 336.05 118.43 L 349.51 122.12 L 349.65 129.41 L 351.42 130.81 L 366.19 134.85 Z" />

  <!-- Rochdale -->
  <path id="borough-rochdale" data-borough="rochdale" d="M 541.05 93.94 L 545.01 97.62 L 546.94 107.22 L 553.2 112.4 L 571.27 110.42 L 574.81 113.97 L 580.35 112.82 L 582.09 110.04 L 582.36 103.2 L 583.67 102.25 L 591.57 103.37 L 601.45 95.72 L 610.53 94.46 L 612.54 99.45 L 607.77 104.44 L 608.18 111.4 L 609.71 115 L 622.66 125.24 L 623.87 132.05 L 619.72 141.72 L 620.45 144.51 L 618.81 149.72 L 619.04 155.46 L 623.14 160.32 L 628.75 162.98 L 629.58 165.79 L 627.91 173.23 L 631.48 180.29 L 626.48 193.33 L 626.35 197.98 L 627.6 200.39 L 624.61 208.76 L 623.1 209.36 L 623.75 210.91 L 605.69 218.89 L 607.23 222.91 L 603.12 225.97 L 596.74 226.08 L 594.54 222.36 L 582.49 223.18 L 577.08 218.94 L 570.72 220.78 L 568.82 218.37 L 563.9 218.54 L 562.42 216.03 L 559.59 215.56 L 557.93 216.73 L 557.81 225.56 L 552.97 225.77 L 548.84 229.76 L 546.54 234.61 L 537.22 239.53 L 528.61 238.57 L 520.18 240.68 L 523.74 245.4 L 525.03 262.54 L 514.16 268.07 L 509.77 274.5 L 506.96 275.36 L 506.8 284.54 L 508.72 285.24 L 509.15 292.77 L 503.92 303.98 L 494.94 317.43 L 488.25 313.72 L 478.82 312.29 L 477.02 309.79 L 478.1 306.13 L 476.83 304.26 L 471.74 298.54 L 467.76 298.17 L 466.88 296.02 L 451.01 303.3 L 453.64 296.8 L 450.85 281.95 L 447.16 276.92 L 451.6 273.91 L 447.89 270.56 L 443.07 270.54 L 441.66 267.96 L 445.81 261.57 L 443.89 260.41 L 445.8 255.94 L 439.78 248.88 L 436.03 240.25 L 432.13 236.38 L 426.77 235.9 L 424.95 237.56 L 424.2 242.83 L 420.04 244.96 L 416.35 243.81 L 412.29 238.37 L 412.5 233.94 L 415.95 235.75 L 415.4 231.13 L 417.07 227.47 L 422.79 230.77 L 422.92 226.73 L 432.15 226.41 L 432.97 222.31 L 435.3 219.28 L 439.65 216.39 L 443.86 216.39 L 444.4 213.92 L 440.82 211.15 L 439.2 204.74 L 429.93 205.63 L 425.82 202.01 L 421.39 194.26 L 423.72 191.86 L 425.93 194.23 L 433.2 191.41 L 432.1 187.28 L 434.23 185.66 L 431.53 185.4 L 431.06 180.15 L 428.97 179.14 L 426.72 158.3 L 424.91 156.08 L 425.36 153.61 L 423.24 151.63 L 422.97 148.72 L 430.31 137.03 L 437.03 133.74 L 443.6 123.66 L 460.79 113.09 L 467.73 115.67 L 470.27 121.06 L 476.84 127.51 L 477.06 132.87 L 479.87 134.5 L 478.44 136.75 L 491.84 145.94 L 498.07 145.54 L 499.2 149.23 L 497.07 149.98 L 499.69 156.67 L 495.47 160.02 L 516.09 155.48 L 516.74 145.5 L 513.9 139.57 L 513.87 136.17 L 521.51 122.49 L 522.86 115.81 L 527.03 107.71 L 527.42 96.88 L 528.98 96.56 L 532.39 102.68 L 534.71 95.65 L 539.44 91.51 L 540.53 93.44 Z" />

  <!-- Oldham -->
  <path id="borough-oldham" data-borough="oldham" d="M 634.43 191.81 L 641.81 193 L 646.36 190.94 L 648.04 197.06 L 658.02 207.76 L 673.14 234.19 L 679.22 237.98 L 682.9 243.95 L 691.72 247.48 L 699.81 255.27 L 702.18 260.96 L 703.61 270.45 L 715.63 279.18 L 718.96 283.51 L 721.74 282.91 L 723.64 285.97 L 729.2 284.86 L 732 303.97 L 728.03 306.4 L 726.72 311.82 L 721 314.9 L 720.12 326.23 L 717.28 329.12 L 725.87 338.43 L 725.24 340.47 L 721.41 344.98 L 709.8 350.99 L 703.95 349.79 L 699.87 352.84 L 692.58 352.93 L 689.24 350.81 L 685.89 345.16 L 665.67 335.25 L 657.12 327.51 L 646.65 331.75 L 638.38 328.43 L 638.96 323.53 L 632.04 317.12 L 623.55 315.54 L 621.49 317.45 L 607.38 314.06 L 605.33 317.13 L 608.78 320.65 L 608.04 327.22 L 604.4 326.22 L 599.81 328.74 L 598.73 326.42 L 588.12 330.18 L 574.49 329.6 L 574.35 333.2 L 572.62 333.89 L 572.9 336.38 L 569.54 339.14 L 568.65 342.55 L 565.41 345.66 L 551.83 351.07 L 550.96 357.51 L 541.58 362.01 L 538.52 366.15 L 537.64 371.01 L 533.6 372.12 L 529.75 370.91 L 528.54 368.31 L 522.32 369.65 L 519.53 367.4 L 513.88 369.51 L 515.65 361.75 L 506.72 356.11 L 507.93 354.8 L 503.94 355.51 L 502.72 353.6 L 502.03 352.15 L 502.86 351.4 L 501.2 350.9 L 505.57 345.3 L 505.71 341.6 L 509.87 339.75 L 516.83 340.57 L 521.68 333.74 L 517.95 327.43 L 513.14 330.25 L 508.24 324.79 L 508.48 319.32 L 494.94 317.43 L 503.92 303.98 L 509.15 292.77 L 508.72 285.24 L 506.8 284.54 L 506.96 275.36 L 509.77 274.5 L 514.16 268.07 L 525.03 262.54 L 523.74 245.4 L 520.18 240.68 L 528.61 238.57 L 537.22 239.53 L 546.54 234.61 L 548.84 229.76 L 552.97 225.77 L 557.81 225.56 L 557.93 216.73 L 559.59 215.56 L 562.42 216.03 L 563.9 218.54 L 568.82 218.37 L 570.72 220.78 L 577.08 218.94 L 582.49 223.18 L 594.54 222.36 L 596.74 226.08 L 603.12 225.97 L 607.23 222.91 L 605.69 218.89 L 623.75 210.91 L 623.1 209.36 L 624.61 208.76 L 627.6 200.39 L 626.35 197.98 L 626.48 193.33 L 631.48 180.29 L 631.8 185.14 L 634.22 191.44 Z" />

  <!-- Salford -->
  <path id="borough-salford" data-borough="salford" d="M 279.54 298.4 L 293.01 300.22 L 302.71 304.07 L 312.72 304.08 L 323.94 313.87 L 350.52 321.49 L 353.62 316.56 L 351.25 315.76 L 351.92 312.72 L 350.29 312.11 L 352.46 309.98 L 351.12 308.78 L 355.46 307.9 L 355.85 305.37 L 358.5 305.56 L 366.97 314.13 L 376.14 320.01 L 388.19 320.13 L 394.71 327.79 L 395.23 334.69 L 402.01 337.11 L 405.06 342 L 421.55 334.1 L 432.32 332.77 L 439.15 335.44 L 444.15 341.8 L 439.78 347.73 L 443.69 350 L 444.06 352.25 L 442.56 355.88 L 438.74 353.71 L 435.4 360.6 L 437.91 366.08 L 437.07 368.75 L 439.28 370.29 L 439.68 373.72 L 444.23 379.39 L 429.18 392.88 L 427.2 398.48 L 413.61 409.95 L 396.79 400.6 L 382.18 389.43 L 376.58 387.65 L 343.7 400.25 L 322.67 412.49 L 313.31 420.61 L 304.98 433.2 L 298.53 453.22 L 294.6 461.25 L 289.93 466.22 L 269.05 480.61 L 267.42 476.6 L 269.21 473.92 L 269.38 470.54 L 267.12 464.87 L 258.46 451.08 L 247.64 446.49 L 244.23 440.48 L 246.23 433.97 L 237.55 423.94 L 236.87 419.69 L 234.44 416.8 L 245.56 413.49 L 255.53 413.76 L 281.84 409.74 L 278.34 385.17 L 280.81 376.15 L 278.37 370.29 L 284.28 362.17 L 283 357.93 L 285.5 356.69 L 285.3 352.42 L 293.81 349.54 L 292.31 348.44 L 293.07 347.34 L 292.28 346.18 L 295.35 344.39 L 294.71 341.8 L 298.24 341.96 L 298.93 337.86 L 291.86 329.98 L 264.93 321.76 L 267.57 318.08 L 270.12 318.8 L 273.14 314.74 L 275.83 309.79 L 276.25 303.53 L 278.72 301.6 L 279.49 298.57 Z" />

  <!-- Trafford -->
  <path id="borough-trafford" data-borough="trafford" d="M 412.96 409.99 L 426.92 398.65 L 424.48 403.01 L 426.58 402.97 L 431.52 408.94 L 433.26 413.57 L 436.83 413.03 L 437.46 415.08 L 421.62 430.39 L 408.99 432.7 L 406.05 438.53 L 403.06 439.43 L 405.86 443.99 L 404.47 446.99 L 401.08 447.58 L 402.06 451.53 L 397.09 450.68 L 397.29 455.32 L 406.68 457.43 L 411.19 467.47 L 419.8 471.08 L 418.23 475.54 L 415.87 477.12 L 416.23 481.16 L 410.46 480.26 L 402.37 483.94 L 399.51 487.66 L 399.13 491.47 L 396.42 489.4 L 386.27 489.36 L 380.09 486.77 L 390.87 507.25 L 392.87 507.73 L 397.17 514.9 L 397.28 526.12 L 409.47 537.78 L 403.46 546.4 L 398.38 560.01 L 385.16 564.92 L 384.1 562.58 L 378.18 561.89 L 377.04 563.69 L 376.14 559.1 L 372.57 560.28 L 370.7 558.61 L 371.44 555.51 L 362.89 550.47 L 359.71 551.76 L 356.21 549.91 L 355.24 552.68 L 352.25 549.32 L 348.23 548.95 L 348.19 551.26 L 345.22 551.66 L 346.24 555.04 L 337.55 555.99 L 330.28 552.49 L 327.8 546.86 L 319.7 545.76 L 314.79 540.36 L 310.8 539.22 L 311.55 536.63 L 305.29 532.6 L 304.62 528.4 L 296.64 525.49 L 295.36 523.26 L 290.25 522.76 L 287.39 519.42 L 283.9 521.19 L 282.22 518.65 L 278.25 518.02 L 278.25 515.64 L 272.28 514.76 L 269.89 511.01 L 266.61 510.29 L 261.17 513.64 L 259.94 511.68 L 254.88 511.06 L 250.48 514.58 L 244.12 508.99 L 254.81 502.45 L 267.93 481.38 L 293.24 462.95 L 297.34 456.33 L 306.69 429.86 L 313.31 420.61 L 323.23 412.13 L 350.45 396.58 L 375.49 387.63 L 382.18 389.43 L 412.69 409.98 Z" />

  <!-- Manchester -->
  <path id="borough-manchester" data-borough="manchester" d="M 446.95 299.65 L 449.96 303.4 L 452.45 303.23 L 466.88 296.02 L 467.76 298.17 L 471.74 298.54 L 476.83 304.26 L 478.1 306.13 L 477.02 309.79 L 479.07 312.47 L 488.25 313.72 L 502.7 319.4 L 508.48 319.32 L 508.24 324.79 L 513.14 330.25 L 517.95 327.43 L 521.74 333.33 L 520.48 336.54 L 516.26 340.76 L 509.88 339.75 L 505.72 341.59 L 505.57 345.3 L 501.2 350.9 L 502.86 351.4 L 502.03 352.15 L 503.94 355.51 L 507.93 354.8 L 506.72 356.11 L 515.65 361.75 L 513.8 366.96 L 514.49 370.68 L 511.63 372.09 L 511.91 375.38 L 509.27 376.38 L 510.33 388.04 L 512.13 388.81 L 512.58 392.12 L 515.91 395.6 L 520.74 394.92 L 525.49 398.58 L 528.52 406.2 L 525.85 411.66 L 523.44 412.33 L 526.67 416.17 L 525.16 416.7 L 526.48 417.86 L 516.94 425.25 L 516.15 428.8 L 512.1 425.97 L 510.89 432.27 L 506.2 434.31 L 506.99 435.38 L 503.12 455.8 L 492.77 450.67 L 493.97 452.73 L 490.38 452.78 L 488.82 463.65 L 485.6 462.99 L 483.49 464.77 L 481.35 469.46 L 476.51 474.03 L 477.37 476.16 L 474.65 477.65 L 471.42 476.25 L 469.67 487.82 L 472.14 493.48 L 466.32 496.1 L 465.88 499.71 L 463.5 501.83 L 450.27 502.32 L 446.46 504.28 L 446.45 506.73 L 442.78 509.21 L 444.85 512.06 L 443.5 512.44 L 443.47 515.95 L 445.28 517.37 L 443.71 517.6 L 443.3 521.08 L 446.38 521.28 L 446 528 L 447.84 531.51 L 446.83 535.29 L 447.38 539.77 L 451.26 546.5 L 447.96 561.82 L 445.08 561.52 L 444.17 559.56 L 434.53 560.23 L 432.39 561.98 L 433.16 565.47 L 427.52 569.89 L 427.88 571.33 L 425.41 574.8 L 420.41 574.87 L 415.73 577.62 L 413.96 581.4 L 408.57 582.07 L 408.47 584.53 L 405.87 586.7 L 400.76 585.65 L 395.75 589.72 L 394.74 588.61 L 400.23 582.92 L 398.62 580.42 L 399.73 577.57 L 398.07 575.69 L 395.93 577.01 L 395.99 575.15 L 392.4 571.12 L 386.78 568.8 L 384.86 565.69 L 398.38 560.01 L 403.46 546.4 L 409.47 537.78 L 397.28 526.12 L 397.17 514.9 L 392.87 507.73 L 390.87 507.25 L 380.09 486.77 L 386.27 489.36 L 396.42 489.4 L 399.13 491.47 L 399.51 487.66 L 402.37 483.94 L 410.46 480.26 L 416.23 481.16 L 415.87 477.12 L 419.52 472.35 L 418.4 470.09 L 411.13 467.4 L 406.85 457.56 L 397.29 455.32 L 397.01 451.02 L 397.43 449.7 L 402.06 451.53 L 401.08 447.58 L 404.47 446.99 L 405.86 443.99 L 403.06 439.43 L 406.05 438.53 L 408.99 432.7 L 421.62 430.39 L 437.27 415.97 L 436.83 413.03 L 433.26 413.57 L 431.52 408.94 L 426.58 402.97 L 424.48 403.01 L 429.18 392.88 L 444.23 379.39 L 439.68 373.72 L 439.28 370.29 L 437.07 368.75 L 437.91 366.08 L 435.4 360.6 L 438.74 353.71 L 442.56 355.88 L 443.69 350 L 439.78 347.73 L 444.15 341.8 L 439.85 335.82 L 434.08 333.45 L 434.49 330.12 L 437.6 326.9 L 437.07 324.36 L 438.81 324.7 L 438.52 322.19 L 441.08 323.56 L 442.93 317.17 L 427.95 323.73 L 424.07 306.31 L 432.23 297.3 L 438.57 295.01 L 446.56 299.3 Z" />

  <!-- Tameside -->
  <path id="borough-tameside" data-borough="tameside" d="M 608.41 314.58 L 621.49 317.45 L 623.55 315.54 L 631.5 316.9 L 638.96 323.53 L 638.38 328.43 L 646.65 331.75 L 657.12 327.51 L 665.67 335.25 L 685.89 345.16 L 677.88 355.75 L 679.55 366.22 L 676.24 376.73 L 664.93 386.57 L 663.65 394.81 L 665.31 398.59 L 664.32 402.55 L 671.1 412.61 L 664.64 416.15 L 665.07 421.51 L 666.82 423.48 L 658.85 430.38 L 658.67 436.33 L 647.42 443.61 L 651 451.56 L 647.35 451.48 L 642.77 446.02 L 639.17 448.17 L 634.96 455.8 L 631.14 456.67 L 632.38 460.13 L 628.3 462.5 L 620.55 464.25 L 606.63 457.71 L 601.19 461.74 L 598.58 460.03 L 590.41 466.08 L 581.91 463.31 L 580.45 456.25 L 582.4 454.36 L 578.11 449.73 L 570.74 450.19 L 571.53 455.04 L 566.7 456.5 L 562.35 454.86 L 554.92 444.77 L 553.84 446.84 L 555.97 447.77 L 551.59 451.05 L 552.1 447.49 L 549.06 444.2 L 548.25 446 L 549.05 449.08 L 543.25 446.48 L 539.03 449.63 L 538.09 446.81 L 536.42 449.08 L 533.52 447.01 L 532.95 448.37 L 532.1 442.6 L 530.48 440.58 L 531.91 439.27 L 526.83 436.36 L 526.47 433.58 L 521.84 429.92 L 518.58 424.31 L 525.59 419.98 L 526.48 417.86 L 525.16 416.7 L 526.67 416.17 L 523.44 412.33 L 525.85 411.66 L 528.53 405.89 L 525.49 398.58 L 520.74 394.92 L 515.91 395.6 L 515.33 393.51 L 512.95 392.64 L 512.13 388.81 L 510.33 388.04 L 508.96 378.39 L 509.51 375.88 L 511.91 375.38 L 511.92 371.66 L 519.22 367.43 L 522.32 369.65 L 528.42 368.27 L 529.75 370.91 L 533.6 372.12 L 537.73 370.97 L 538.52 366.15 L 541.58 362.01 L 550.96 357.51 L 551.83 351.07 L 565.41 345.66 L 568.65 342.55 L 569.54 339.14 L 572.9 336.38 L 572.62 333.89 L 574.35 333.2 L 574.49 329.6 L 588.12 330.18 L 598.73 326.42 L 599.81 328.74 L 604.4 326.22 L 608.04 327.22 L 608.78 320.65 L 605.32 316.06 L 608.22 314.57 Z" />

  <!-- Stockport -->
  <path id="borough-stockport" data-borough="stockport" d="M 521.13 428.43 L 526.47 433.58 L 526.83 436.36 L 531.91 439.27 L 530.48 440.58 L 532.1 442.6 L 532.95 448.37 L 533.52 447.01 L 536.42 449.08 L 538.09 446.81 L 539.03 449.63 L 543.25 446.48 L 549.05 449.08 L 548.25 446 L 549.06 444.2 L 552.1 447.49 L 551.59 451.05 L 555.97 447.77 L 553.84 446.84 L 554.92 444.77 L 562.35 454.86 L 566.7 456.5 L 571.53 455.04 L 570.74 450.19 L 578.11 449.73 L 582.4 454.36 L 580.45 456.25 L 581.44 458.05 L 580.89 461.47 L 583.22 464.82 L 586.4 465.87 L 588.92 464.58 L 590.41 466.08 L 598.58 460.03 L 601.19 461.74 L 606.63 457.71 L 620.97 464.33 L 631.92 460.37 L 633.52 464.2 L 635.91 464.05 L 637.56 467.31 L 636.47 472.87 L 634.38 472.16 L 634.15 473.89 L 640.18 475.69 L 639.88 477.37 L 641.81 477.79 L 641.42 479.55 L 642.73 480.61 L 645.35 479.41 L 650.11 481.86 L 661.06 481.62 L 657.69 496.98 L 650.18 513.84 L 650.5 523.24 L 643.28 526.45 L 641.52 531.55 L 639.92 530.2 L 637.57 531.51 L 639.83 535.49 L 636.52 535.83 L 636.06 539.49 L 632 541.57 L 625.51 538.79 L 629.5 546.14 L 627.84 546.41 L 627.93 544.6 L 626.49 543.85 L 621.53 544.06 L 619.69 540.89 L 616.78 545.88 L 607.03 551.27 L 606.16 557.73 L 603.3 562.78 L 598.63 564.54 L 589.65 564.52 L 582.62 561.91 L 572.9 552.45 L 554.06 554.66 L 548.76 558.45 L 544.79 554.55 L 540.08 554.02 L 535.24 550.65 L 536.36 551.67 L 534.85 554.55 L 534.51 560.98 L 535.95 565.69 L 524.8 578.32 L 530.89 585.9 L 525.83 592.46 L 524.17 604.65 L 522.38 607.64 L 518.59 606 L 516.52 608.49 L 508.25 601.8 L 500.28 604.1 L 493.48 598.44 L 491.09 593.44 L 487.95 591.99 L 490.89 586.98 L 499.26 584.21 L 493.22 577.45 L 495.43 571.8 L 481.37 567.79 L 475.68 568.41 L 476.59 565.82 L 470.47 565.94 L 469.1 562.84 L 463.88 561.52 L 447.96 561.82 L 451.26 546.5 L 447.38 539.77 L 446.83 535.29 L 447.84 531.51 L 446 528 L 446.38 521.28 L 443.3 521.08 L 443.71 517.6 L 445.28 517.37 L 443.47 515.95 L 443.5 512.44 L 444.85 512.06 L 442.78 509.21 L 446.45 506.73 L 446.46 504.28 L 450.27 502.32 L 463.5 501.83 L 465.88 499.71 L 466.32 496.1 L 472.14 493.48 L 469.67 487.82 L 471.42 476.25 L 474.65 477.65 L 477.37 476.16 L 476.51 474.03 L 481.35 469.46 L 483.49 464.77 L 485.6 462.99 L 488.82 463.65 L 490.38 452.78 L 493.97 452.73 L 492.77 450.67 L 503.12 455.8 L 506.99 435.38 L 506.2 434.31 L 510.89 432.27 L 512.1 425.97 L 516.15 428.8 L 515.8 426.89 L 518.58 424.31 L 521.08 428.31 Z" />
</svg>
